<svg width="0" height="0" class="hidden">
    <symbol id="check@" fill="none" xmlns="http://www.w3.org/2000/svg" viewBox="0 0 11 11">
        <path d="M1 .664l3.649 8.084L10 .664" stroke="#fff" stroke-width="2"></path>
    </symbol>
    <symbol id="phone@" fill="none" xmlns="http://www.w3.org/2000/svg" viewBox="0 0 30 30">
        <path
            d="M24.374 27.19h-.16C5.794 26.13 3.178 10.585 2.813 5.842A2.813 2.813 0 015.4 2.813h5.166a1.875 1.875 0 011.744 1.182l1.425 3.506a1.875 1.875 0 01-.413 2.025l-1.997 2.016a8.785 8.785 0 007.106 7.125l2.035-2.016a1.875 1.875 0 012.034-.384l3.535 1.415a1.875 1.875 0 011.153 1.744v4.95a2.813 2.813 0 01-2.813 2.813zM5.624 4.69a.938.938 0 00-.937.937v.075c.43 5.55 3.197 18.675 19.63 19.612a.938.938 0 00.995-.88v-5.007l-3.535-1.416-2.69 2.672-.45-.056c-8.157-1.022-9.263-9.178-9.263-9.262l-.056-.45 2.662-2.691-1.406-3.535h-4.95z"
            fill="#fff"></path>
    </symbol>
    <symbol id="plumber@" fill="none" xmlns="http://www.w3.org/2000/svg" viewBox="0 0 23 34">
        <path
            d="M22.464 2.868h-.304V1.32c0-.284-.157-.515-.352-.515h-2.715c-.194 0-.351.23-.351.515v1.548h-.398c-.194 0-.352.23-.352.516v1.65c0 .285.158.516.352.516h.398v1.547c0 .285.157.516.35.516.195 0 .352-.23.352-.516V5.55h2.013v7.462c0 3.129-1.733 5.674-3.863 5.674H14.95V15.59h2.74c.967 0 1.755-1.157 1.755-2.58V9.849c0-.285-.157-.515-.351-.515-.194 0-.351.23-.351.515v3.164c0 .853-.473 1.547-1.054 1.547H14.95v-.722c0-.285-.157-.515-.351-.515h-1.124c-.194 0-.351.23-.351.515v.722h-.796v-3.645h.377c.153.793.65 1.376 1.238 1.376.71 0 1.288-.849 1.288-1.891 0-1.043-.578-1.892-1.288-1.892-.588 0-1.085.583-1.238 1.376h-1.456c-.154-.793-.65-1.376-1.239-1.376-.71 0-1.287.849-1.287 1.892 0 1.042.577 1.89 1.287 1.89.588 0 1.085-.582 1.239-1.375h.377v3.645h-.796v-.722c0-.285-.158-.515-.352-.515H9.354c-.194 0-.352.23-.352.515v.722H6.076c-2.517 0-4.565 3.008-4.565 6.706v2.338c0 .285.157.516.35.516.195 0 .352-.231.352-.516v-2.338c0-3.129 1.733-5.674 3.863-5.674h2.926v3.095h-3.02c-.968 0-1.756 1.157-1.756 2.579v7.875H2.213v-2.786c0-.285-.157-.516-.351-.516-.194 0-.351.231-.351.516v2.786h-.398c-.194 0-.351.23-.351.515v1.65c0 .286.157.517.35.517h.399v1.547c0 .285.157.516.351.516h2.716c.194 0 .35-.231.35-.516v-1.547h.305c.194 0 .351-.231.351-.516v-1.65c0-.286-.157-.516-.35-.516h-.305v-7.875c0-.853.473-1.547 1.053-1.547h3.02v.721c0 .285.158.516.352.516h1.123c.194 0 .352-.23.352-.515v-.723h2.294v.723c0 .284.157.515.351.515h1.124c.194 0 .35-.23.35-.515v-.723h2.646c2.518 0 4.566-3.008 4.566-6.705V5.55h.304c.194 0 .351-.23.351-.516v-1.65c0-.285-.157-.516-.351-.516zm-8.522 6.67c.323 0 .586.387.586.86 0 .475-.263.86-.586.86-.322 0-.585-.385-.585-.86 0-.473.263-.86.585-.86zm-3.933 1.72c-.323 0-.585-.385-.585-.86 0-.473.262-.86.585-.86.323 0 .585.387.585.86 0 .475-.262.86-.585.86zM4.227 32.853H2.213v-1.031h2.014v1.031zm.655-2.063H1.464v-.619h3.418v.62zm5.244-10.866h-.421v-5.57h.421v5.57zm2.997-1.238h-2.294V15.59h2.294v3.095zm1.124 1.238h-.422v-5.57h.422v5.57zm5.197-18.088h2.013v1.032h-2.013V1.836zm2.669 2.682h-3.418V3.9h3.418v.618z"
            fill="#fff"></path>
    </symbol>
    <symbol id="lamp@" fill="none" xmlns="http://www.w3.org/2000/svg" viewBox="0 0 24 36">
        <path
            d="M20.725 15.171c1.417-1.968 2.755-3.827 2.755-5.71 0-2.49-1.198-4.88-3.33-6.64C18.017 1.06 15.125.07 12.11.07c-3.018 0-5.91.99-8.042 2.75C1.936 4.58.739 6.97.739 9.46c0 1.883 1.337 3.742 2.755 5.71 1.273 1.77 2.59 3.6 2.93 5.483v1.718h-.71a.793.793 0 00-.503.172.54.54 0 00-.209.415v1.76c0 .134.055.263.156.367l1.923 1.986c-.407.006-.804.11-1.142.297a1.877 1.877 0 00-.764.762c-.161.309-.21.65-.143.982.068.331.25.64.525.889a1.66 1.66 0 00-.512.832 1.46 1.46 0 00.08.93c.128.3.352.564.649.765.296.202.653.333 1.033.38l2.668 2.203c.133.11.314.171.502.171h4.264c.189 0 .37-.061.503-.172l2.668-2.203c.38-.046.736-.177 1.033-.379a1.79 1.79 0 00.649-.764 1.46 1.46 0 00.08-.931 1.66 1.66 0 00-.512-.832 1.65 1.65 0 00.524-.89 1.472 1.472 0 00-.142-.981 1.877 1.877 0 00-.765-.762 2.44 2.44 0 00-1.142-.297l1.923-1.986a.527.527 0 00.156-.366v-1.761a.54.54 0 00-.208-.415.793.793 0 00-.503-.172h-.71v-1.718c.34-1.884 1.656-3.712 2.93-5.482zM13.947 34.11h-3.676L8.85 32.936h6.518l-1.421 1.174zm3.137-2.348h-9.95a.794.794 0 01-.502-.172.54.54 0 01-.208-.415.54.54 0 01.208-.415.793.793 0 01.502-.172h9.95c.189 0 .37.062.503.172a.54.54 0 01.208.415.54.54 0 01-.209.415.793.793 0 01-.502.172zm.71-2.934a.54.54 0 01-.207.415.793.793 0 01-.503.172h-9.95a.793.793 0 01-.502-.172.54.54 0 01-.208-.415.54.54 0 01.208-.415.794.794 0 01.502-.172h9.95c.189 0 .37.062.503.172a.54.54 0 01.208.415zm0-4.314l-2.473 2.553H8.898l-2.473-2.553v-.968h11.37v.968zm-6.515-5.987l-1.302-1.613v-.998h4.264v.998l-1.302 1.613a.52.52 0 00-.12.324v3.521H11.4v-3.521a.52.52 0 00-.12-.326v.002zm5.101 2.003a.47.47 0 00-.007.081v1.761h-2.132v-3.345l1.302-1.613a.52.52 0 00.12-.324v-1.174h.71a2.47 2.47 0 001.185-.296 1.89 1.89 0 00.785-.79c.161-.322.204-.676.121-1.018a1.693 1.693 0 00-.583-.901 2.302 2.302 0 00-1.092-.482 2.552 2.552 0 00-1.232.1c-.39.133-.722.359-.956.648-.235.29-.36.63-.36.979v.586H9.977v-.586c0-.349-.125-.69-.36-.979a2.097 2.097 0 00-.956-.648 2.552 2.552 0 00-1.232-.1 2.301 2.301 0 00-1.091.482c-.299.246-.502.56-.584.901a1.48 1.48 0 00.121 1.017c.162.322.435.597.786.79.35.194.762.297 1.184.297h.71v1.174c.001.116.043.23.12.326l1.302 1.61v3.346H7.845v-1.76a.47.47 0 00-.007-.084c-.368-2.13-1.769-4.075-3.123-5.956C3.401 12.747 2.16 11.02 2.16 9.46c0-2.179 1.048-4.269 2.914-5.81C6.94 2.11 9.47 1.245 12.109 1.245c2.639 0 5.17.866 7.036 2.407 1.866 1.54 2.914 3.63 2.914 5.81 0 1.56-1.242 3.286-2.559 5.11-1.35 1.882-2.752 3.827-3.12 5.957v.002zm-.717-5.788v-.586c0-.117.041-.23.12-.327a.699.699 0 01.318-.216.85.85 0 01.41-.033.766.766 0 01.365.16c.1.083.167.187.194.301a.493.493 0 01-.04.34.628.628 0 01-.262.263.822.822 0 01-.395.098h-.71zm-7.107-.586v.586h-.71a.822.822 0 01-.396-.098.628.628 0 01-.261-.264.493.493 0 01-.04-.339.564.564 0 01.194-.3.766.766 0 01.363-.161.85.85 0 01.411.033c.13.045.24.12.319.216a.52.52 0 01.12.327z"
            fill="#fff"></path>
    </symbol>
    <symbol id="brush@" fill="none" xmlns="http://www.w3.org/2000/svg" viewBox="0 0 23 23">
        <path
            d="M22.392.055H1.093A.355.355 0 00.738.41v9.628a1.069 1.069 0 001.064 1.065l.052-.001a1.073 1.073 0 001.014-1.084V3.25a.355.355 0 01.71 0v2.84a1.07 1.07 0 00.692.999A1.073 1.073 0 005.708 6.07V3.25a.355.355 0 01.355-.355h.355a.355.355 0 01.355.355v1.065a.355.355 0 00-.355.355v7.93a1.244 1.244 0 00-.71 1.122v1.242a.355.355 0 00.355.356h2.485v.71a.355.355 0 00.355.354h1.42v4.438a1.244 1.244 0 001.242 1.242h.355a1.244 1.244 0 001.242-1.242v-4.438h1.42a.355.355 0 00.355-.355v-.71h2.485a.355.355 0 00.355-.354V13.72a1.244 1.244 0 00-.71-1.122v-7.93a.355.355 0 00-.355-.355 1.421 1.421 0 011.41-1.42h.01a1.39 1.39 0 01.984.414c.277.275.433.648.436 1.038v2.453a1.062 1.062 0 001.066 1.065h.007a1.077 1.077 0 001.057-1.083V3.427a.533.533 0 01.532-.533h.178a.355.355 0 00.355-.355V.41a.355.355 0 00-.355-.354zm-9.94 20.765a.533.533 0 01-.532.533h-.355a.533.533 0 01-.532-.533v-4.437h1.42v4.438zm1.775-5.147h-4.97v-.354h4.97v.354zm2.84-1.952v.887H6.417v-.887a.533.533 0 01.533-.532h9.585a.533.533 0 01.532.532zM15.292 8.22a.355.355 0 00-.355.355v3.905h-.71V6.444a.355.355 0 10-.71 0v6.035h-.71V7.864a.355.355 0 10-.71 0v4.615h-.71V6.444a.355.355 0 00-.71 0v6.035h-.71V7.154a.355.355 0 10-.71 0v5.325h-.71V9.284a.355.355 0 00-.71 0v3.195h-.71V5.024h1.274l.605.606a.356.356 0 00.503 0l.605-.606h2.546l.606.606a.356.356 0 00.502 0l.555-.555.857.286c.09.03.187.023.271-.019l.635-.318h.271v7.455h-.71V8.574a.355.355 0 00-.355-.355zm6.745-6.022a1.244 1.244 0 00-1.065 1.23V6.78a.365.365 0 01-.352.373h-.002a.354.354 0 01-.356-.355V4.346a2.189 2.189 0 00-1.326-2 2.096 2.096 0 00-.805-.161h-.013a2.13 2.13 0 00-2.116 2.13.359.359 0 00-.159.037l-.578.289-.926-.308a.356.356 0 00-.363.085l-.459.46-.458-.46a.356.356 0 00-.252-.104h-2.84a.355.355 0 00-.25.104l-.46.46-.458-.46a.355.355 0 00-.251-.104H7.483V3.25a1.066 1.066 0 00-1.065-1.064h-.355A1.066 1.066 0 004.998 3.25v2.82a.37.37 0 01-.338.375.355.355 0 01-.372-.355V3.25a1.065 1.065 0 00-2.13 0v6.77a.37.37 0 01-.337.374.355.355 0 01-.373-.355V.765h20.589v1.432z"
            fill="#fff"></path>
        <path
            d="M14.993 3.96a1.066 1.066 0 001.065-1.064v-1.42a.355.355 0 10-.71 0v1.42a.355.355 0 01-.71 0v-.71a.355.355 0 10-.71 0v.71a1.067 1.067 0 001.065 1.065z"
            fill="#fff"></path>
    </symbol>
    <symbol id="logo@" fill="none" xmlns="http://www.w3.org/2000/svg" viewBox="0 0 186 124">
        <path d="M186 0H0v124h186V0z" fill="#0A0A0A"></path>
        <path
            d="M35.753 98.616c-1.013 0-1.996-.134-2.948-.402-.94-.28-1.696-.64-2.27-1.08l1.007-2.23c.55.402 1.202.725 1.959.969a7.36 7.36 0 002.27.366c.842 0 1.465-.122 1.867-.366.403-.256.604-.592.604-1.006a.917.917 0 00-.366-.75c-.231-.207-.537-.372-.915-.494a17.276 17.276 0 00-1.501-.402c-.977-.231-1.776-.463-2.398-.695a3.964 3.964 0 01-1.611-1.116c-.44-.512-.66-1.195-.66-2.048 0-.744.202-1.414.605-2.012.402-.61 1.007-1.09 1.812-1.445.818-.353 1.812-.53 2.984-.53a9.87 9.87 0 012.398.293c.781.195 1.465.475 2.05.84l-.915 2.25c-1.183-.67-2.367-1.005-3.551-1.005-.83 0-1.447.134-1.85.402-.39.268-.585.622-.585 1.06 0 .44.226.769.677.988.464.208 1.166.415 2.106.622.976.232 1.775.464 2.398.695a3.9 3.9 0 011.593 1.098c.451.5.677 1.176.677 2.03a3.5 3.5 0 01-.623 2.011c-.402.598-1.013 1.073-1.83 1.427-.818.354-1.813.53-2.984.53zm16.818-2.963h-5.95l-1.134 2.744h-3.04l5.712-12.803h2.93l5.73 12.803h-3.113l-1.135-2.744zm-.933-2.25l-2.032-4.9-2.032 4.9h4.064zm10.391-5.43v3.383h5.932v2.377h-5.932v4.664h-2.966V85.594h9.685v2.378h-6.719zm19.565 8.046v2.378H71.67V85.594h9.685v2.378h-6.737v2.78h5.95v2.304h-5.95v2.963h6.975zm15.028-10.425v12.803h-2.966v-5.25h-5.822v5.25H84.87V85.594h2.966v5.048h5.821v-5.047h2.966zm10.153 13.022c-1.33 0-2.532-.286-3.606-.86a6.496 6.496 0 01-2.509-2.359c-.597-1.012-.897-2.146-.897-3.401 0-1.256.3-2.384.897-3.384a6.452 6.452 0 012.509-2.377c1.074-.574 2.276-.86 3.606-.86 1.331 0 2.526.286 3.588.86a6.442 6.442 0 012.508 2.377c.611 1 .916 2.128.916 3.384 0 1.255-.305 2.39-.916 3.401a6.487 6.487 0 01-2.508 2.36c-1.062.573-2.257.86-3.588.86zm0-2.524c.757 0 1.44-.17 2.05-.512a3.733 3.733 0 001.428-1.463c.354-.622.531-1.329.531-2.121 0-.793-.177-1.5-.531-2.122a3.607 3.607 0 00-1.428-1.445 4.01 4.01 0 00-2.05-.53 4.02 4.02 0 00-2.05.53 3.745 3.745 0 00-1.447 1.445c-.341.622-.512 1.329-.512 2.122 0 .792.171 1.5.512 2.121.354.622.837 1.11 1.447 1.463.61.342 1.294.512 2.05.512zm15.85 2.524c-1.831 0-3.259-.506-4.284-1.518-1.013-1.012-1.52-2.457-1.52-4.334v-7.17h2.966v7.06c0 2.292.952 3.438 2.856 3.438.927 0 1.635-.274 2.123-.823.489-.56.733-1.432.733-2.615v-7.06h2.929v7.17c0 1.877-.513 3.322-1.538 4.334-1.013 1.012-2.435 1.518-4.265 1.518zm13.859 0a10.82 10.82 0 01-2.947-.402c-.939-.28-1.696-.64-2.27-1.08l1.007-2.23c.549.402 1.202.725 1.959.969a7.36 7.36 0 002.27.366c.842 0 1.464-.122 1.867-.366.403-.256.604-.592.604-1.006a.918.918 0 00-.366-.75c-.232-.207-.537-.372-.915-.494a17.322 17.322 0 00-1.501-.402c-.977-.231-1.776-.463-2.399-.695a3.97 3.97 0 01-1.611-1.116c-.439-.512-.659-1.195-.659-2.048 0-.744.202-1.414.604-2.012.403-.61 1.007-1.09 1.813-1.445.818-.353 1.812-.53 2.984-.53a9.86 9.86 0 012.398.293c.781.195 1.465.475 2.05.84l-.915 2.25c-1.184-.67-2.367-1.005-3.551-1.005-.83 0-1.447.134-1.849.402-.391.268-.586.622-.586 1.06 0 .44.226.769.677.988.464.208 1.166.415 2.105.622.977.232 1.776.464 2.399.695a3.897 3.897 0 011.592 1.098c.452.5.678 1.176.678 2.03a3.5 3.5 0 01-.623 2.011c-.403.598-1.013 1.073-1.83 1.427-.818.354-1.813.53-2.985.53zm18.302-2.597v2.378h-9.922V85.594h9.684v2.378h-6.737v2.78h5.95v2.304h-5.95v2.963h6.975z"
            fill="#fff"></path>
        <path fill-rule="evenodd" clip-rule="evenodd"
            d="M49.063 58.599l44.013-43.97.004.005L112 33.48V22h7v18.454l18.218 18.148-5.696 5.69L93.084 26 54.758 64.29l-5.696-5.69zm37.347-8.484h13.547v23.41H86.41v-23.41z"
            fill="#fff"></path>
    </symbol>
    <symbol id="note@" fill="none" xmlns="http://www.w3.org/2000/svg" viewBox="0 0 23 30">
        <path
            d="M14.679 0a.626.626 0 00-.092.009H0V30h22.991V8.594a.665.665 0 000-.212v-.167l-.123-.126a.648.648 0 00-.117-.121l-.004-.003-7.553-7.71a.647.647 0 00-.12-.123l-.12-.123h-.167A.625.625 0 0014.68 0zM1.277 1.313H14.05v7.824h7.664v19.559H1.277V1.313zm14.05.922l5.484 5.598h-5.483V2.235zM5.11 13.049v1.303h12.773V13.05H5.11zm0 3.911v1.304h10.219V16.96H5.109zm0 3.912v1.304h12.773v-1.304H5.11z"
            fill="#fff"></path>
    </symbol>
</svg>